<?xml version="1.0" encoding="UTF-8"?>
<svg version="1.1" xmlns="http://www.w3.org/2000/svg" width="216" height="168">
<path d="M0 0 C71.28 0 142.56 0 216 0 C216 55.44 216 110.88 216 168 C144.72 168 73.44 168 0 168 C0 112.56 0 57.12 0 0 Z " fill="#123DFC" transform="translate(0,0)"/>
<path d="M0 0 C1.89209252 1.81640882 3.71001013 3.63092198 5.33203125 5.6953125 C13.3162978 15.68069903 24.51375306 21.83909276 35.5 28 C51.28478841 36.86392791 64.22288646 47.17566002 77 60 C77.35384766 59.1646875 77.35384766 59.1646875 77.71484375 58.3125 C86.43969202 42.61307697 107.49719647 32.4047911 122.44995117 24.07104492 C128.36791061 20.72998216 133.63881706 17.10318033 138.82836914 12.70800781 C140.82850811 11.13487997 142.73612109 10.1243133 145 9 C145.68486725 7.67592331 146.34870203 6.34090759 147 5 C148.62746694 3.29503463 150.28891311 1.62102968 152 0 C147.97957229 15.67966807 133.86412041 26.39401797 120.609375 34.25390625 C117.71108629 35.94728013 114.80609021 37.62870734 111.90039062 39.30932617 C105.43061804 43.07757693 99.50601362 46.88807734 94 52 C93.31808594 52.62648437 92.63617188 53.25296875 91.93359375 53.8984375 C88.93035408 56.774267 86.72735402 59.17989015 85 63 C85.54785156 62.46632812 86.09570312 61.93265625 86.66015625 61.3828125 C96.11868054 52.49333764 106.7110127 45.7228364 118.0625 39.5 C129.2100161 33.37604847 139.33864892 26.40023411 148 17 C149.32863026 15.66198013 150.66083159 14.32747261 152 13 C147.52933751 30.43558373 131.41233016 40.45247991 116.98046875 49.0625 C115.32081384 50.04251617 113.66071239 51.02177686 112 52 C101.49606575 58.249002 92.70818423 65.46619319 85 75 C85.86625 74.21625 86.7325 73.4325 87.625 72.625 C98.27534488 63.58897905 109.98451124 56.44752944 122.02880859 49.44165039 C128.41301606 45.69526818 134.25631301 41.66246747 140 37 C141.3303125 36.0409375 141.3303125 36.0409375 142.6875 35.0625 C145.99859194 32.10936394 148.44847713 28.61246537 151 25 C151.33 25.66 151.66 26.32 152 27 C149.97050957 31.82003978 147.96187999 35.04042405 144.3125 38.75 C139.91158159 44.12993628 140.38321972 49.71625965 140.26513672 56.34716797 C139.92028886 73.15151089 132.89831819 87.73471424 121.34765625 99.8203125 C107.06744363 113.07881274 90.06296885 118.37043806 70.85546875 118.21875 C61.99190361 117.71585269 53.8485613 115.06343954 46 111 C44.81664063 110.40445313 44.81664063 110.40445313 43.609375 109.796875 C29.33767332 101.98783068 19.8296704 88.93647189 14 74 C13.38376708 71.70624413 12.84326742 69.3909726 12.375 67.0625 C12.18019043 66.10512939 12.18019043 66.10512939 11.98144531 65.12841797 C11.19199959 60.95693807 10.87880277 56.93318277 10.79418945 52.69311523 C10.64362178 45.64638173 9.7398512 41.27891747 4.79296875 35.96484375 C2.02998956 32.93700382 0.58487603 29.76408057 -1 26 C-0.67 25.34 -0.34 24.68 0 24 C0.58394531 24.81791016 0.58394531 24.81791016 1.1796875 25.65234375 C8.88995787 36.04521971 18.02245856 43.04522871 29.1875 49.4375 C31.39996611 50.73567957 33.61090974 52.03645742 35.8203125 53.33984375 C36.88024414 53.96358887 37.94017578 54.58733398 39.03222656 55.22998047 C48.24405771 60.72403903 57.25292425 66.52518569 65 74 C61.12402185 64.47429099 49.43354771 57.99462534 41 53 C8.07545704 33.38142835 8.07545704 33.38142835 1 18 C1.33 17.01 1.66 16.02 2 15 C2.41507813 15.53367187 2.83015625 16.06734375 3.2578125 16.6171875 C13.42695624 28.91376717 27.57049101 36.31223202 41.22973633 44.11547852 C48.33748184 48.22670573 54.74770208 52.68017841 61 58 C62.20793653 59.00047928 63.41621024 60.00055177 64.625 61 C65.40875 61.66 66.1925 62.32 67 63 C58.1073126 52.39600506 48.68484327 44.37051413 36.625 37.5625 C28.92841465 33.21395178 21.8109427 28.67578559 15 23 C14.34 22.4534375 13.68 21.906875 13 21.34375 C7.43889994 16.27917673 3.45011244 9.63138495 0 3 C0 2.01 0 1.02 0 0 Z " fill="#F5F7FE" transform="translate(34,35)"/>
<path d="M0 0 C11.55811718 4.13276489 22.96247713 11.82096376 32 20 C32.83917969 20.75796875 33.67835937 21.5159375 34.54296875 22.296875 C40.14972125 27.62371398 44.3353887 33.08049207 48.40625 39.62890625 C49.78201102 42.0963567 49.78201102 42.0963567 52 43 C52.26683594 42.43539062 52.53367188 41.87078125 52.80859375 41.2890625 C62.47615375 22.71466854 79.53484377 10.01845284 98 1 C98.99 1 99.98 1 101 1 C100.6752812 14.34299052 95.06415707 24.73852011 85.90234375 34.15625 C80.76345642 39.01417524 75.49584043 42.256157 69 45 C68.32839844 45.3196875 67.65679687 45.639375 66.96484375 45.96875 C57.69753907 49.82566293 43.32806276 49.67913121 34 46 C19.31882387 39.25213023 9.29378343 30.58548681 3.125 15.4375 C1.24072826 10.22331852 0.28098221 5.52598353 0 0 Z " fill="#1640FC" transform="translate(59,91)"/>
<path d="M0 0 C5.7081794 4.38212541 10.45613333 9.4814802 15.0390625 15.01171875 C12.20704775 17.90360696 9.74718653 20.29331981 6.0390625 22.01171875 C2.48797236 22.01171875 1.28567209 21.23885916 -1.3359375 18.82421875 C-2.2021875 17.89609375 -3.0684375 16.96796875 -3.9609375 16.01171875 C-10.75645767 8.85043404 -22.26014269 3.04314356 -32.20703125 2.7734375 C-47.17681318 2.4499939 -58.86520303 4.48286533 -70.9609375 14.01171875 C-73.82808808 16.86523787 -76.45145406 19.84070959 -78.9609375 23.01171875 C-83.62302952 21.28859666 -86.99426703 18.96727714 -90.9609375 16.01171875 C-85.61429687 4.70529062 -74.10522432 -3.32022926 -62.7890625 -7.9921875 C-40.81360526 -15.73216208 -19.20130711 -12.89375372 0 0 Z " fill="#F8FAFE" transform="translate(147.9609375,35.98828125)"/>
<path d="M0 0 C0.66 0.33 1.32 0.66 2 1 C1.34 1.66 0.68 2.32 0 3 C0.495 3.99 0.495 3.99 1 5 C0.04480469 5.556875 -0.91039062 6.11375 -1.89453125 6.6875 C-12.35949933 12.84152601 -22.68978763 19.01598663 -31 28 C-31.66 27.67 -32.32 27.34 -33 27 C-25.11662894 17.90523622 -17.35521436 10.21256215 -7.0625 3.9375 C-6.06742432 3.32733032 -6.06742432 3.32733032 -5.05224609 2.70483398 C-3.40650003 1.73501175 -1.70646036 0.85850354 0 0 Z " fill="#264DFC" transform="translate(151,83)"/>
<path d="M0 0 C0.8125 1.6875 0.8125 1.6875 1 4 C-0.61022555 5.92188211 -2.112438 7.38145969 -4 9 C-4.67546875 9.60714844 -5.3509375 10.21429688 -6.046875 10.83984375 C-11.6125 15.80625 -11.6125 15.80625 -14 17 C-10.9644742 10.28595525 -5.23214891 5.07359894 0 0 Z " fill="#3C5FFC" transform="translate(131,83)"/>
<path d="M0 0 C0.66 0.33 1.32 0.66 2 1 C-0.36366517 4.35889262 -3.06459584 7.13286105 -6 10 C-7.10546952 11.10286228 -8.20963465 12.20703355 -9.3125 13.3125 C-10.199375 14.199375 -11.08625 15.08625 -12 16 C-12.66 15.67 -13.32 15.34 -14 15 C-4.58997722 4.44191344 -4.58997722 4.44191344 0 0 Z " fill="#3F61FC" transform="translate(132,95)"/>
<path d="M0 0 C0.66 0.33 1.32 0.66 2 1 C0.60344703 4.49873271 -0.71260484 5.70891831 -4.125 7.25 C-5.21167969 7.75273438 -5.21167969 7.75273438 -6.3203125 8.265625 C-7.15175781 8.62914062 -7.15175781 8.62914062 -8 9 C-8 8.34 -8 7.68 -8 7 C-8.66 6.34 -9.32 5.68 -10 5 C-8.27473958 4.28385417 -6.54947917 3.56770833 -4.82421875 2.8515625 C-2.73466068 1.93193308 -2.73466068 1.93193308 0 0 Z " fill="#2B52FC" transform="translate(160,53)"/>
<path d="M0 0 C0.33 0.66 0.66 1.32 1 2 C0.06553465 4.03144641 -0.93224776 6.03533587 -2 8 C-3.32 7.67 -4.64 7.34 -6 7 C-4.02 4.69 -2.04 2.38 0 0 Z " fill="#C4CFFE" transform="translate(185,48)"/>
</svg>
